<svg xmlns="http://www.w3.org/2000/svg" width="180" height="180" viewBox="0 0 180 180">
  <!-- Apple requires no transparency — solid background -->
  <rect width="180" height="180" rx="38" fill="#030712"/>
  <rect width="180" height="180" rx="38" fill="url(#grad)" opacity="0.15"/>
  <!-- Lightning bolt -->
  <g transform="translate(42, 22) scale(2)">
    <path fill="#863bff" d="M25.946 44.938c-.664.845-2.021.375-2.021-.698V33.937a2.26 2.26 0 0 0-2.262-2.262H10.287c-.92 0-1.456-1.04-.92-1.788l7.48-10.471c1.07-1.497 0-3.578-1.842-3.578H1.237c-.92 0-1.456-1.04-.92-1.788L10.013.474c.214-.297.556-.474.92-.474h28.894c.92 0 1.456 1.04.92 1.788l-7.48 10.471c-1.07 1.498 0 3.579 1.842 3.579h11.377c.943 0 1.473 1.088.89 1.83L25.947 44.94z"/>
  </g>
  <text x="90" y="158" font-family="system-ui, -apple-system, sans-serif" font-size="20" font-weight="700" fill="#f59e0b" text-anchor="middle" letter-spacing="1">LexRise</text>
  <defs>
    <linearGradient id="grad" x1="0" y1="0" x2="1" y2="1">
      <stop offset="0%" stop-color="#6366f1"/>
      <stop offset="100%" stop-color="#8b5cf6"/>
    </linearGradient>
  </defs>
</svg>
